<svg width="24" height="24" viewBox="0 0 24 24" fill="none" xmlns="http://www.w3.org/2000/svg">
<path d="M12.75 20.66L18.934 13.562C21.611 10.678 21.493 7.05598 19.688 4.85698C18.79 3.76198 17.482 3.04098 15.968 3.00198C14.675 2.96798 13.316 3.43198 12.005 4.44398C10.69 3.43198 9.32701 2.96798 8.03201 3.00198C6.51701 3.04198 5.20701 3.76198 4.30801 4.85698C2.50201 7.05798 2.39301 10.68 5.08001 13.563L11.263 20.66C11.453 20.876 11.723 21 12.006 21C12.1468 20.9988 12.2858 20.9679 12.4138 20.9093C12.5419 20.8507 12.6561 20.7658 12.749 20.66H12.75Z" fill="white"/>
</svg>
