<svg width="24" height="24" viewBox="0 0 24 24" fill="none" xmlns="http://www.w3.org/2000/svg">
<path fill-rule="evenodd" clip-rule="evenodd" d="M21 4C21.1826 3.99994 21.3617 4.04987 21.518 4.14439C21.6742 4.2389 21.8016 4.37439 21.8863 4.53616C21.971 4.69793 22.0098 4.8798 21.9984 5.06205C21.9871 5.2443 21.9261 5.41997 21.822 5.57L17.368 12L21.822 18.43C21.9261 18.58 21.9871 18.7557 21.9984 18.9379C22.0098 19.1202 21.971 19.3021 21.8863 19.4638C21.8016 19.6256 21.6742 19.7611 21.518 19.8556C21.3617 19.9501 21.1826 20.0001 21 20H7.84701C7.68545 20.0001 7.52629 19.961 7.38313 19.8861C7.23998 19.8112 7.1171 19.7027 7.02501 19.57L2.17801 12.57C2.06188 12.4026 1.99966 12.2037 1.99966 12C1.99966 11.7963 2.06188 11.5974 2.17801 11.43L7.02501 4.43C7.1171 4.29726 7.23998 4.1888 7.38313 4.11392C7.52629 4.03903 7.68545 3.99994 7.84701 4H21Z" fill="white"/>
</svg>
