<svg width="24" height="24" viewBox="0 0 24 24" fill="none" xmlns="http://www.w3.org/2000/svg">
<path fill-rule="evenodd" clip-rule="evenodd" d="M2.99999 4C2.81739 3.99994 2.63826 4.04987 2.48202 4.14439C2.32579 4.2389 2.19841 4.37439 2.11371 4.53616C2.02902 4.69793 1.99023 4.8798 2.00156 5.06205C2.01289 5.2443 2.07391 5.41997 2.17799 5.57L6.63199 12L2.17799 18.43C2.07391 18.58 2.01289 18.7557 2.00156 18.9379C1.99023 19.1202 2.02902 19.3021 2.11371 19.4638C2.19841 19.6256 2.32579 19.7611 2.48202 19.8556C2.63826 19.9501 2.81739 20.0001 2.99999 20H16.153C16.3145 20.0001 16.4737 19.961 16.6169 19.8861C16.76 19.8112 16.8829 19.7027 16.975 19.57L21.822 12.57C21.9381 12.4026 22.0003 12.2037 22.0003 12C22.0003 11.7963 21.9381 11.5974 21.822 11.43L16.975 4.43C16.8829 4.29726 16.76 4.1888 16.6169 4.11392C16.4737 4.03903 16.3145 3.99994 16.153 4H2.99999Z" fill="white"/>
</svg>
