<svg width="24" height="24" viewBox="0 0 24 24" fill="none" xmlns="http://www.w3.org/2000/svg">
<path d="M10 2C7.87827 2 5.84344 2.84285 4.34315 4.34315C2.84285 5.84344 2 7.87827 2 10C2 12.1217 2.84285 14.1566 4.34315 15.6569C5.84344 17.1571 7.87827 18 10 18C12.1217 18 14.1566 17.1571 15.6569 15.6569C17.1571 14.1566 18 12.1217 18 10C18 7.87827 17.1571 5.84344 15.6569 4.34315C14.1566 2.84285 12.1217 2 10 2Z" fill="white"/>
<path fill-rule="evenodd" clip-rule="evenodd" d="M21.707 21.707C21.5195 21.8945 21.2652 21.9998 21 21.9998C20.7348 21.9998 20.4805 21.8945 20.293 21.707L16.793 18.207C16.6109 18.0184 16.5101 17.7658 16.5123 17.5036C16.5146 17.2414 16.6198 16.9906 16.8052 16.8052C16.9906 16.6198 17.2414 16.5146 17.5036 16.5124C17.7658 16.5101 18.0184 16.6109 18.207 16.793L21.707 20.293C21.8945 20.4806 21.9998 20.7349 21.9998 21C21.9998 21.2652 21.8945 21.5195 21.707 21.707Z" fill="white"/>
</svg>
