<svg width="24" height="24" viewBox="0 0 24 24" fill="none" xmlns="http://www.w3.org/2000/svg">
<path d="M18.011 13H20C19.633 15.555 17.68 17.683 15.023 18.616V20H8.977V18.616C6.32 17.683 4.367 15.556 4 13H18.011ZM18.011 13C18.4807 12.9983 18.9349 12.8313 19.2938 12.5283C19.6527 12.2253 19.8936 11.8056 19.9741 11.3428C20.0546 10.88 19.9697 10.4037 19.7341 9.99727C19.4986 9.59084 19.1276 9.28028 18.686 9.12003M18.011 13H18M18.686 9.12003C18.472 9.04303 18.24 9.00003 18 9.00003M18.686 9.12003C19.522 8.08703 19.439 6.45003 18.406 5.61403C17.9095 5.21257 17.2739 5.02457 16.6388 5.09131C16.0038 5.15806 15.4212 5.4741 15.019 5.97003C14.726 4.46803 13.271 3.81603 11.769 4.11003C11.4117 4.17949 11.0717 4.31867 10.7682 4.51963C10.4648 4.72059 10.2039 4.97937 10.0005 5.2812C9.79712 5.58302 9.65521 5.92197 9.58289 6.27867C9.51056 6.63537 9.50924 7.00282 9.579 7.36003C8.98 6.17303 7.619 5.26403 6.155 6.00103C4.967 6.60003 4.45 8.19203 5.049 9.38003M5.049 9.38003C4.371 9.66503 4 10.336 4 11.117C4 12.157 4.843 13 5.883 13M5.049 9.38003C5.336 9.26003 6.145 8.98003 7.094 9.72203M12.369 8.83103C12.8514 8.61068 13.4016 8.59098 13.8986 8.77626C14.3956 8.96154 14.7986 9.33663 15.019 9.81903" stroke="white" stroke-width="2" stroke-linecap="round" stroke-linejoin="round"/>
</svg>
