<svg width="24" height="24" viewBox="0 0 24 24" fill="none" xmlns="http://www.w3.org/2000/svg">
<path fill-rule="evenodd" clip-rule="evenodd" d="M14 7H10V10C10 10.2652 9.89464 10.5196 9.70711 10.7071C9.51957 10.8946 9.26522 11 9 11C8.73478 11 8.48043 10.8946 8.29289 10.7071C8.10536 10.5196 8 10.2652 8 10V7H6C5.74812 7.00001 5.50552 7.09507 5.32068 7.26618C5.13585 7.4373 5.02239 7.67187 5.003 7.923L4.086 19.847C4.06492 20.1217 4.10083 20.3978 4.19148 20.658C4.28213 20.9182 4.42556 21.1568 4.61278 21.359C4.8 21.5611 5.02697 21.7224 5.27945 21.8327C5.53193 21.943 5.80448 22 6.08 22H17.92C18.1955 22 18.4681 21.943 18.7206 21.8327C18.973 21.7224 19.2 21.5611 19.3872 21.359C19.5744 21.1568 19.7179 20.9182 19.8085 20.658C19.8992 20.3978 19.9351 20.1217 19.914 19.847L18.997 7.923C18.9776 7.67187 18.8642 7.4373 18.6793 7.26618C18.4945 7.09507 18.2519 7.00001 18 7H16V10C16 10.2652 15.8946 10.5196 15.7071 10.7071C15.5196 10.8946 15.2652 11 15 11C14.7348 11 14.4804 10.8946 14.2929 10.7071C14.1054 10.5196 14 10.2652 14 10V7ZM12 4C11.4696 4 10.9609 4.21071 10.5858 4.58579C10.2107 4.96086 10 5.46957 10 6V7H8V6C8 4.93913 8.42143 3.92172 9.17157 3.17157C9.92172 2.42143 10.9391 2 12 2C13.0609 2 14.0783 2.42143 14.8284 3.17157C15.5786 3.92172 16 4.93913 16 6V7H14V6C14 5.46957 13.7893 4.96086 13.4142 4.58579C13.0391 4.21071 12.5304 4 12 4Z" fill="#546A76"/>
</svg>
