<svg width="24" height="24" viewBox="0 0 24 24" fill="none" xmlns="http://www.w3.org/2000/svg">
<path d="M21.135 11.3053L12.885 0.805328C12.7797 0.671209 12.6454 0.562768 12.4921 0.488198C12.3387 0.413627 12.1705 0.374878 12 0.374878C11.8295 0.374878 11.6612 0.413627 11.5079 0.488198C11.3546 0.562768 11.2202 0.671209 11.115 0.805328L2.86499 11.3053C2.70943 11.5035 2.62488 11.7481 2.62488 12C2.62488 12.2519 2.70943 12.4966 2.86499 12.6947L2.92124 12.766C2.93327 12.7847 2.94708 12.8023 2.96249 12.8185L11.1187 23.1947C11.224 23.3288 11.3584 23.4373 11.5117 23.5118C11.665 23.5864 11.8332 23.6252 12.0037 23.6252C12.1742 23.6252 12.3425 23.5864 12.4958 23.5118C12.6491 23.4373 12.7835 23.3288 12.8887 23.1947L21.1387 12.6947C21.2938 12.4961 21.3776 12.2513 21.377 11.9994C21.3763 11.7475 21.2911 11.5031 21.135 11.3053ZM13.125 4.75314L18.48 11.5688L13.125 14.0063V4.75314ZM10.875 14.0025L5.51999 11.565L10.875 4.75314V14.0025ZM10.875 16.4747V19.2469L7.48592 14.9344L10.875 16.4747ZM13.125 16.4747L16.514 14.9344L13.125 19.2469V16.4747Z" fill="#CAA200"/>
</svg>
