<svg width="84" height="89" viewBox="0 0 84 89" fill="none" xmlns="http://www.w3.org/2000/svg">
<path fill-rule="evenodd" clip-rule="evenodd" d="M11.4719 18.7692L23.6509 0.027832L37.4539 22.0238L59.8979 22.1286L73.353 43.3896L59.6412 64.9526L11.7169 64.9795L23.788 47.5214L42.2149 47.4318L42.3501 51.8059L53.9247 43.2322L42.297 34.4174L42.3042 38.8061L23.7416 38.7832L11.4719 18.7692Z" fill="#456C78"/>
<path fill-rule="evenodd" clip-rule="evenodd" d="M11.4719 18.7692L23.6509 0.027832L37.4539 22.0238L59.8979 22.1286L73.353 43.3896L59.6412 64.9526L11.7169 64.9795L23.788 47.5214L42.2149 47.4318L42.3501 51.8059L53.9247 43.2322L42.297 34.4174L42.3042 38.8061L23.7416 38.7832L11.4719 18.7692Z" fill="#456C78"/>
<path d="M17.02 81.88C17.62 81.88 18.08 81.7733 18.4 81.56C18.72 81.3333 18.88 81.0133 18.88 80.6V80.56C18.88 80.1733 18.7267 79.8667 18.42 79.64C18.1133 79.4133 17.6333 79.3 16.98 79.3H14.02V81.88H17.02ZM16.46 76.58C17.06 76.58 17.5133 76.48 17.82 76.28C18.14 76.08 18.3 75.7733 18.3 75.36V75.32C18.3 74.9333 18.1533 74.64 17.86 74.44C17.5667 74.2267 17.1267 74.12 16.54 74.12H14.02V76.58H16.46ZM10.24 71H17.42C18.3 71 19.0533 71.1067 19.68 71.32C20.3067 71.5333 20.8267 71.8467 21.24 72.26C21.52 72.54 21.74 72.8667 21.9 73.24C22.06 73.6133 22.14 74.04 22.14 74.52V74.56C22.14 75.3733 21.9333 76.0333 21.52 76.54C21.12 77.0333 20.6067 77.4133 19.98 77.68C20.8333 77.96 21.5067 78.3667 22 78.9C22.5067 79.42 22.76 80.1533 22.76 81.1V81.14C22.76 82.3533 22.2933 83.3 21.36 83.98C20.44 84.66 19.14 85 17.46 85H10.24V71ZM28.7769 82.86C29.3369 82.86 29.7902 82.7 30.1369 82.38C30.4835 82.06 30.6569 81.6267 30.6569 81.08V80.58C30.4702 80.5 30.2435 80.4333 29.9769 80.38C29.7235 80.3267 29.4569 80.3 29.1769 80.3C28.6169 80.3 28.1835 80.4267 27.8769 80.68C27.5835 80.92 27.4369 81.24 27.4369 81.64V81.68C27.4369 82.0533 27.5635 82.3467 27.8169 82.56C28.0702 82.76 28.3902 82.86 28.7769 82.86ZM27.4169 85.24C26.8969 85.24 26.4169 85.1667 25.9769 85.02C25.5369 84.8733 25.1502 84.66 24.8169 84.38C24.4969 84.1 24.2435 83.7533 24.0569 83.34C23.8702 82.9267 23.7769 82.4467 23.7769 81.9V81.86C23.7769 81.3 23.8769 80.8067 24.0769 80.38C24.2902 79.9533 24.5769 79.6 24.9369 79.32C25.3102 79.04 25.7569 78.8267 26.2769 78.68C26.7969 78.5333 27.3769 78.46 28.0169 78.46C28.5235 78.46 29.0035 78.5067 29.4569 78.6C29.9235 78.68 30.3102 78.7733 30.6169 78.88V78.7C30.6169 78.14 30.4369 77.7067 30.0769 77.4C29.7302 77.0933 29.1902 76.94 28.4569 76.94C27.8835 76.94 27.3635 76.9933 26.8969 77.1C26.4302 77.2067 25.9569 77.3533 25.4769 77.54L24.6969 74.86C25.3102 74.6067 25.9569 74.4067 26.6369 74.26C27.3302 74.1 28.1435 74.02 29.0769 74.02C30.0502 74.02 30.8702 74.1333 31.5369 74.36C32.2169 74.5867 32.7702 74.9133 33.1969 75.34C33.6102 75.74 33.9035 76.2267 34.0769 76.8C34.2635 77.36 34.3569 78.02 34.3569 78.78V85H30.5969V83.88C30.2235 84.2933 29.7769 84.6267 29.2569 84.88C28.7502 85.12 28.1369 85.24 27.4169 85.24ZM36.2895 74.18H40.0895V76.36C40.3962 75.6267 40.8162 75.04 41.3495 74.6C41.8829 74.16 42.6029 73.96 43.5095 74V78H43.1895C42.1895 78 41.4229 78.2933 40.8895 78.88C40.3562 79.4667 40.0895 80.3867 40.0895 81.64V85H36.2895V74.18ZM49.1442 85.22C47.9976 85.22 47.1042 84.9467 46.4642 84.4C45.8242 83.8533 45.5042 82.9333 45.5042 81.64V77.24H44.2242V74.18H45.5042V71.44H49.3042V74.18H51.8242V77.24H49.3042V80.9C49.3042 81.2867 49.3909 81.5667 49.5642 81.74C49.7376 81.9 49.9976 81.98 50.3442 81.98C50.5976 81.98 50.8442 81.9467 51.0842 81.88C51.3242 81.8133 51.5576 81.7267 51.7842 81.62V84.6C51.4376 84.7867 51.0442 84.9333 50.6042 85.04C50.1642 85.16 49.6776 85.22 49.1442 85.22ZM60.3775 78.7C60.3108 78.1 60.1108 77.6267 59.7775 77.28C59.4442 76.92 59.0175 76.74 58.4975 76.74C57.9908 76.74 57.5775 76.92 57.2575 77.28C56.9375 77.6267 56.7242 78.1 56.6175 78.7H60.3775ZM58.8175 85.26C57.9642 85.26 57.1842 85.1267 56.4775 84.86C55.7708 84.58 55.1575 84.2 54.6375 83.72C54.1308 83.2267 53.7308 82.6333 53.4375 81.94C53.1575 81.2467 53.0175 80.48 53.0175 79.64V79.6C53.0175 78.8133 53.1508 78.08 53.4175 77.4C53.6842 76.7067 54.0575 76.1067 54.5375 75.6C55.0308 75.08 55.6108 74.6733 56.2775 74.38C56.9442 74.0867 57.6775 73.94 58.4775 73.94C59.4108 73.94 60.2175 74.1 60.8975 74.42C61.5908 74.74 62.1575 75.1733 62.5975 75.72C63.0508 76.2533 63.3842 76.88 63.5975 77.6C63.8242 78.3067 63.9375 79.06 63.9375 79.86C63.9375 79.98 63.9375 80.1067 63.9375 80.24C63.9375 80.3733 63.9308 80.5067 63.9175 80.64H56.6775C56.8242 81.24 57.0975 81.6867 57.4975 81.98C57.9108 82.2733 58.4175 82.42 59.0175 82.42C59.4708 82.42 59.8842 82.3333 60.2575 82.16C60.6442 81.9867 61.0308 81.7067 61.4175 81.32L63.5175 83.06C62.9975 83.7267 62.3508 84.26 61.5775 84.66C60.8175 85.06 59.8975 85.26 58.8175 85.26ZM65.5669 74.18H69.3669V76.36C69.6735 75.6267 70.0935 75.04 70.6269 74.6C71.1602 74.16 71.8802 73.96 72.7869 74V78H72.4669C71.4669 78 70.7002 78.2933 70.1669 78.88C69.6335 79.4667 69.3669 80.3867 69.3669 81.64V85H65.5669V74.18Z" fill="white"/>
</svg>
